<?xml version="1.0" encoding="utf-8"?>
<!-- Generator: Adobe Illustrator 16.0.0, SVG Export Plug-In . SVG Version: 6.00 Build 0)  -->
<!DOCTYPE svg PUBLIC "-//W3C//DTD SVG 1.1//EN" "http://www.w3.org/Graphics/SVG/1.1/DTD/svg11.dtd">
<svg version="1.1" id="图层_1" xmlns="http://www.w3.org/2000/svg" xmlns:xlink="http://www.w3.org/1999/xlink" x="0px" y="0px"
	 width="150.732px" height="30.066px" viewBox="0 0 150.732 30.066" enable-background="new 0 0 150.732 30.066"
	 xml:space="preserve">
<g>
	<g>
		<path fill="#46BD01" d="M5.57,20.321c0,1.938,0.021,3.873-0.007,5.811c-0.022,1.68-0.931,2.686-2.584,2.688
			c-1.568,0.001-2.505-1.032-2.528-2.561c-0.062-4.071-0.249-8.165,0.072-12.214c0.473-5.986,6.612-8.962,11.901-6.069
			c0.578,0.315,1.634,0.296,2.217-0.026c5.118-2.804,11.227-0.01,11.787,5.752c0.405,4.168,0.188,8.404,0.135,12.607
			c-0.021,1.527-0.994,2.537-2.567,2.504c-1.662-0.034-2.53-1.06-2.539-2.736c-0.013-3.604-0.003-7.212-0.019-10.818
			c-0.012-2.212-0.828-3.177-2.653-3.193c-1.841-0.018-2.688,0.938-2.706,3.139c-0.022,3.474,0.008,6.946-0.018,10.42
			c-0.018,2.068-0.902,3.186-2.479,3.232c-1.65,0.05-2.605-1.11-2.622-3.288c-0.021-3.475,0.016-6.947-0.012-10.418
			c-0.018-2.159-0.922-3.128-2.768-3.085c-1.763,0.041-2.571,0.978-2.593,3.047c-0.018,1.738-0.005,3.473-0.005,5.21
			C5.581,20.321,5.576,20.321,5.57,20.321z"/>
		<path fill="#46BD01" d="M62.479,21.228c0,1.602,0.049,3.206-0.013,4.807c-0.064,1.756-1.197,2.931-2.722,2.794
			c-1.63-0.148-2.532-1.118-2.544-2.78c-0.021-3.205-0.038-11.932,0.011-15.136c0.026-1.655,0.962-2.657,2.621-2.665
			c1.668-0.007,2.573,0.997,2.629,2.652c0.054,1.602,0.013,8.724,0.013,10.328C62.476,21.228,62.477,21.228,62.479,21.228z"/>
		<path fill="#46BD01" d="M60.006,6.611c-1.665,0.038-2.923-1.15-2.963-2.798c-0.041-1.646,1.174-2.924,2.813-2.959
			c1.615-0.036,2.934,1.211,2.972,2.812C62.866,5.286,61.634,6.574,60.006,6.611z"/>
		<path fill="#46BD01" d="M45.324,13.222c-3.056-3.18-6.902-1.066-8.192,0.983c-1.45,2.308-1.071,6.177,1.729,8.103
			c2.54,1.741,5.677,1.617,8.376-0.522c0.51-0.403,0.997-0.984,1.31-1.422c0.1-0.137,1.061-1.292,3.167-0.127
			c1.069,0.592,1.422,2.146,0.463,3.855c-3.451,6.155-14.252,6.468-18.937,0.153c-3.609-4.866-2.646-11.751,2.148-15.37
			c4.857-3.666,11.648-2.782,15.348,2.061c0.636,0.831,1.14,1.822,1.456,2.818c0.549,1.727-0.154,3.111-1.872,3.631
			c-3.188,0.968-12.833,3.583-12.833,3.583s-0.676-0.814-1.015-2.227c-0.376-1.566-0.005-2.913-0.005-2.913
			S43.101,13.865,45.324,13.222z"/>
		<path fill="#46BD01" d="M83.42,26.916c-6.506,2.938-11.97,0.285-14.384-3.188c-2.661-3.838-2.634-8.815,0.063-12.544
			c2.72-3.759,7.437-5.372,11.873-4.062c4.478,1.325,7.607,5.328,7.762,10.064c0.08,2.495-0.006,4.994,0.03,7.488
			c0.017,1.455-0.122,2.428-1.501,3.46c-0.888,0.665-2.527,0.705-3.541-0.231C83.686,27.72,83.458,27.099,83.42,26.916z
			 M77.872,23.023c3.06,0.018,5.52-2.359,5.596-5.412c0.078-3.073-2.466-5.685-5.55-5.692c-2.988-0.011-5.545,2.472-5.608,5.448
			C72.239,20.45,74.754,23.003,77.872,23.023z"/>
	</g>
	<g>
		<path fill="#46BD01" d="M102.602,6.167c-0.073-0.073-0.147-0.183-0.222-0.331c-0.072-0.146-0.294-0.476-0.659-0.99
			c-0.368-0.732-0.147-1.283,0.659-1.651c0.953-0.512,1.688-0.33,2.202,0.55c0.734,1.25,1.211,2.057,1.435,2.424h5.836
			c0.072-0.146,0.221-0.402,0.44-0.771c0.512-1.027,0.77-1.578,0.77-1.653c0.438-0.731,1.103-0.917,1.982-0.55
			c0.807,0.369,1.063,0.955,0.771,1.762c0,0.148-0.076,0.331-0.225,0.551c-0.146,0.294-0.257,0.515-0.326,0.661h4.845
			c0.952,0.074,1.466,0.587,1.541,1.542c-0.075,0.955-0.589,1.47-1.541,1.541h-9.692v1.321h8.369
			c0.734,0.075,1.139,0.551,1.213,1.431c-0.074,0.881-0.479,1.359-1.213,1.433h-8.479v1.32h10.241
			c0.733,0.075,1.138,0.552,1.211,1.433c-0.073,0.954-0.478,1.47-1.211,1.541h-10.241c0,0.516-0.069,0.991-0.218,1.433h10.021
			c0.808,0.073,1.245,0.549,1.322,1.432c-0.077,0.955-0.516,1.47-1.322,1.542h-8.591c2.129,1.908,5.176,3.267,9.141,4.073
			c0.953,0.146,1.359,0.732,1.212,1.762c-0.367,0.883-1.063,1.248-2.094,1.104c-4.554-0.59-8.259-2.388-11.121-5.396
			c-2.131,2.936-5.615,4.771-10.461,5.506c-0.955,0.146-1.615-0.222-1.983-1.103c-0.217-0.956,0.11-1.579,0.992-1.872
			c4.698-0.66,7.672-2.017,8.921-4.072H97.98c-0.811-0.073-1.249-0.588-1.323-1.542c0.074-0.884,0.514-1.358,1.323-1.433h9.028
			c0.145-0.293,0.223-0.771,0.223-1.433h-9.692c-0.808-0.071-1.25-0.587-1.323-1.541c0.073-0.881,0.517-1.357,1.323-1.433h9.692
			v-1.32h-8.48c-1.321-0.954-1.321-1.907,0-2.863h8.48V9.25H97.98c-0.955-0.071-1.471-0.587-1.544-1.541
			c0.073-0.954,0.589-1.467,1.544-1.542H102.602z"/>
		<path fill="#46BD01" d="M126.718,24.557c-1.25,0.073-1.837-0.697-1.763-2.314V7.488c0-1.395,0.55-2.092,1.652-2.092h2.754
			c1.245-0.073,1.834,0.661,1.761,2.202v14.866c0.221,1.54-0.368,2.24-1.761,2.093H126.718z M128.589,21.803V8.15h-0.991v13.653
			H128.589z M131.783,27.75V6.717c0-1.612,0.732-2.422,2.202-2.422h2.974c1.173-0.071,1.834,0.331,1.983,1.211
			c0.071-0.732,0.55-1.063,1.431-0.99h8.92c0.731,0.073,1.101,0.588,1.101,1.542c-0.073,0.881-0.479,1.358-1.211,1.431h-0.222V26.32
			c0,1.761-0.918,2.642-2.752,2.642c-4.259,0.146-6.206-0.733-5.836-2.642c0.145-0.587,0.587-0.919,1.319-0.993
			c0.368,0,0.92,0.11,1.654,0.331c0.732,0.222,1.283,0.294,1.648,0.222c0.663,0.072,0.953-0.294,0.882-1.102V7.488h-5.614
			c-0.733,0-1.177-0.255-1.32-0.771l-1.104,6.058c0.732,1.763,1.247,3.523,1.542,5.287v-7.27c0.069-1.247,0.66-1.908,1.764-1.981
			h1.98c1.396-0.072,2.056,0.551,1.98,1.872v11.122c0.146,1.47-0.477,2.132-1.87,1.982h-1.435c-1.761,0.148-2.567-0.44-2.421-1.763
			v-1.76c-0.221,1.835-1.064,2.936-2.532,3.302c-0.81,0.074-1.507,0.039-2.093-0.109v4.186c-0.073,0.881-0.551,1.355-1.432,1.432
			C132.37,28.998,131.854,28.557,131.783,27.75z M135.087,12.994l0.771-5.836h-1.213v13.435c1.395,0.368,2.056-0.182,1.98-1.651
			C136.701,17.988,136.187,16.006,135.087,12.994z M141.802,21.144h0.991v-9.691h-0.991V21.144z"/>
	</g>
</g>
</svg>
